#!OML:ASF H:\Pregnant\Project 1\Capture day 1\Session 1\femalepreg.ASF
:FULLY-SPECIFIED
:DEGREES
925
root 3.28335 1.07245 20.0149 49.2972 -75.5441 -154.315
lowerback 16.6474 -0.244325 20.7201
upperback 5.2067 2.99725 1.45055
thorax -2.49778 1.55133 -10.61
lowerneck -15.7054 9.19894 12.0474
upperneck 36.2294 11.01 -2.17205
head 16.5278 5.67626 -0.990448
rclavicle 1.27222e-014 -2.8625e-014
rhumerus -6.18668 48.7439 -75.0908
rradius 75.8517
rwrist -10.0979
rhand 6.78633 -11.545
rfingers 7.12502
rthumb 212.072 -218.736
lclavicle 1.27222e-014 -2.8625e-014
lhumerus -6.04999 -34.7351 35.7137
lradius 31.5822
lwrist 29.892
lhand 180.034 185.516
lfingers 7.12502
lthumb 205.623 -146.188
rfemur -43.5425 7.02442 25.9845
rtibia 135.968
rfoot 9.91064 15.3926
rtoes -23.0145
lfemur -21.2047 -1.38878 0.470083
ltibia 66.4377
lfoot 26.8315 -12.7287
ltoes 4.09953
926
root 3.28638 1.07004 20.0099 48.6398 -75.4451 -153.498
lowerback 16.6106 -0.101578 20.5626
upperback 5.15042 3.16757 1.5196
thorax -2.50489 1.63211 -10.4708
lowerneck -15.6091 9.14847 11.9668
upperneck 36.2914 10.9518 -2.12247
head 16.5195 5.64726 -0.973588
rclavicle 9.22361e-014 -1.41137e-014
rhumerus -5.0665 49.7659 -74.4476
rradius 75.8599
rwrist -10.2021
rhand 6.40186 -11.2103
rfingers 7.12502
rthumb 211.706 -218.475
lclavicle 9.22361e-014 -1.41137e-014
lhumerus -5.47039 -35.4911 35.1384
lradius 31.3428
lwrist 29.8519
lhand 180.278 185.454
lfingers 7.12502
lthumb 205.857 -146.284
rfemur -43.6105 7.01282 26.0543
rtibia 135.98
rfoot 9.90461 15.151
rtoes -22.7362
lfemur -22.2165 -0.508114 0.439712
ltibia 67.8386
lfoot 26.8307 -12.6645
ltoes 3.52282
927
root 3.29787 1.06857 20.0012 46.8268 -75.8146 -151.227
lowerback 16.3557 0.184259 19.7328
upperback 5.04226 3.37306 1.45186
thorax -2.48945 1.73097 -10.1116
lowerneck -15.5105 9.09194 11.8871
upperneck 36.3578 10.8848 -2.07498
head 16.5122 5.61438 -0.959636
rclavicle 6.04305e-014 1.03368e-014
rhumerus -3.94988 50.7638 -73.7847
rradius 75.8419
rwrist -10.3335
rhand 6.00805 -10.8798
rfingers 7.12502
rthumb 211.331 -218.218
lclavicle 6.04305e-014 1.03368e-014
lhumerus -4.87895 -36.2955 34.5593
lradius 31.1201
lwrist 29.8956
lhand 180.507 185.383
lfingers 7.12502
lthumb 206.076 -146.387
rfemur -44.0118 6.78009 25.2067
rtibia 136.193
rfoot 9.6919 15.179
rtoes -22.5087
lfemur -23.3115 0.384256 -0.327472
ltibia 68.9813
lfoot 26.9054 -12.4265
ltoes 2.89566
928
root 3.31972 1.06867 19.9876 43.0936 -76.7529 -146.63
lowerback 15.7838 0.645799 18.0266
upperback 4.87015 3.61437 1.18788
thorax -2.42584 1.85032 -9.47384
lowerneck -15.4173 9.03226 11.8184
upperneck 36.4269 10.8082 -2.02721
head 16.5081 5.57901 -0.948852
rclavicle 2.54444e-014 -5.40694e-014
rhumerus -2.82686 51.7298 -73.1201
rradius 75.7876
rwrist -10.503
rhand 5.5898 -10.5594
rfingers 7.12502
rthumb 210.932 -217.974
lclavicle 2.54444e-014 -5.40694e-014
lhumerus -4.25973 -37.1128 33.9576
lradius 30.9109
lwrist 29.9945
lhand 180.733 185.305
lfingers 7.12502
lthumb 206.292 -146.497
rfemur -44.8737 6.19623 23.1084
rtibia 136.673
rfoot 9.20701 15.6061
rtoes -22.3439
lfemur -24.5414 1.27558 -2.06472
ltibia 69.7962
lfoot 27.0868 -11.9626
ltoes 2.27575
929
root 3.34908 1.07091 19.9689 36.3733 -78.074 -138.621
lowerback 14.8362 1.24095 15.4796
upperback 4.62833 3.86161 0.721991
thorax -2.29328 1.97458 -8.55908
lowerneck -15.3349 8.9716 11.7635
upperneck 36.4977 10.7231 -1.9779
head 16.5079 5.54225 -0.940592
rclavicle 1.59028e-014 2.32578e-014
rhumerus -1.68699 52.6614 -72.4624
rradius 75.6906
rwrist -10.713
rhand 5.14302 -10.2572
rfingers 7.12502
rthumb 210.506 -217.752
lclavicle 1.59028e-014 2.32578e-014
lhumerus -3.60495 -37.8976 33.3282
lradius 30.7103
lwrist 30.1103
lhand 180.97 185.224
lfingers 7.12502
lthumb 206.519 -146.612
rfemur -46.2223 5.05131 19.6845
rtibia 137.42
rfoot 8.42139 16.5401
rtoes -22.2274
lfemur -25.99 2.11088 -4.73124
ltibia 70.2975
lfoot 27.4117 -11.3019
ltoes 1.74529
930
root 3.37925 1.07434 19.9484 25.8518 -79.3862 -126.5
lowerback 13.5964 1.88263 12.3728
upperback 4.32966 4.10118 0.0971663
thorax -2.10174 2.09295 -7.46361
lowerneck -15.2641 8.9109 11.7191
upperneck 36.5702 10.6324 -1.92753
head 16.512 5.50467 -0.933927
rclavicle -7.95139e-014 1.12313e-013
rhumerus -0.523825 53.5593 -71.8108
rradius 75.5471
rwrist -10.9557
rhand 4.68177 -9.97593
rfingers 7.12502
rthumb 210.066 -217.551
lclavicle -7.95139e-014 1.12313e-013
lhumerus -2.91712 -38.6263 32.678
lradius 30.5158
lwrist 30.2235
lhand 181.22 185.145
lfingers 7.12502
lthumb 206.759 -146.727
rfemur -47.9478 3.24875 15.1605
rtibia 138.363
rfoot 7.39051 18.0278
rtoes -22.1077
lfemur -27.6406 2.86998 -8.04322
ltibia 70.6027
lfoot 27.8474 -10.5363
ltoes 1.35681
931
root 3.40359 1.078 19.9291 12.8479 -80.137 -111.84
lowerback 12.2718 2.44762 9.27902
upperback 4.01498 4.30718 -0.556648
thorax -1.88357 2.18976 -6.37385
lowerneck -15.2073 8.85141 11.6844
upperneck 36.6439 10.5385 -1.87701
head 16.5209 5.46698 -0.928532
rclavicle -1.43125e-013 5.18828e-014
rhumerus 0.67326 54.4243 -71.1515
rradius 75.3642
rwrist -11.2251
rhand 4.2227 -9.71778
rfingers 7.12502
rthumb 209.628 -217.372
lclavicle -1.43125e-013 5.18828e-014
lhumerus -2.19613 -39.2952 32.008
lradius 30.3292
lwrist 30.3324
lhand 181.476 185.076
lfingers 7.12502
lthumb 207.004 -146.835
rfemur -49.7223 0.900828 10.3212
rtibia 139.323
rfoot 6.25911 19.8671
rtoes -21.9589
lfemur -29.4059 3.53536 -11.3822
ltibia 70.9034
lfoot 28.3482 -9.82467
ltoes 1.13128
932
root 3.42029 1.08133 19.9136 1.46568 -80.1866 -99.0481
lowerback 11.1346 2.86534 6.77723
upperback 3.74321 4.47626 -1.09111
thorax -1.6878 2.26504 -5.48307
lowerneck -15.1647 8.79441 11.6608
upperneck 36.7187 10.4435 -1.82819
head 16.535 5.43009 -0.924987
rclavicle 9.54166e-015 2.40529e-014
rhumerus 1.91292 55.2521 -70.463
rradius 75.1548
rwrist -11.4973
rhand 3.81784 -9.47323
rfingers 7.12502
rthumb 209.242 -217.195
lclavicle 9.54166e-015 2.40529e-014
lhumerus -1.44223 -39.9153 31.3164
lradius 30.1532
lwrist 30.443
lhand 181.724 185.017
lfingers 7.12502
lthumb 207.24 -146.93
rfemur -51.148 -1.4573 6.21992
rtibia 140.093
rfoot 5.24087 21.5833
rtoes -21.8053
lfemur -31.098 4.14738 -14.1262
ltibia 71.3866
lfoot 28.83 -9.3043
ltoes 1.03493
933
root 3.43213 1.08457 19.9021 -5.63026 -79.8577 -90.9332
lowerback 10.3226 3.14451 5.10649
upperback 3.54735 4.61892 -1.43437
thorax -1.54118 2.32809 -4.86979
lowerneck -15.1364 8.74094 11.6526
upperneck 36.7953 10.3481 -1.78176
head 16.5552 5.39473 -0.924125
rclavicle 9.54166e-015 -7.35503e-015
rhumerus 3.19755 56.0441 -69.7222
rradius 74.9421
rwrist -11.7789
rhand 3.472 -9.24852
rfingers 7.12502
rthumb 208.911 -217.027
lclavicle 9.54166e-015 -7.35503e-015
lhumerus -0.652934 -40.5074 30.5953
lradius 29.9916
lwrist 30.5611
lhand 181.952 184.967
lfingers 7.12502
lthumb 207.459 -147.015
rfemur -52.0515 -3.27475 3.48497
rtibia 140.577
rfoot 4.4838 22.7709
rtoes -21.7099
lfemur -32.5956 4.75696 -16.0132
ltibia 72.1296
lfoot 29.237 -9.01634
ltoes 1.01692
